<svg width="81" height="80" viewBox="0 0 81 80" fill="none" xmlns="http://www.w3.org/2000/svg">
<rect x="0.5" width="80" height="80" rx="40" fill="#F2F2F2"/>
<path d="M50 50L45.2779 45.2695L50 50ZM47.8947 38.9474C47.8947 41.3204 46.9521 43.5962 45.2741 45.2741C43.5962 46.9521 41.3204 47.8947 38.9474 47.8947C36.5744 47.8947 34.2986 46.9521 32.6206 45.2741C30.9427 43.5962 30 41.3204 30 38.9474C30 36.5744 30.9427 34.2986 32.6206 32.6206C34.2986 30.9427 36.5744 30 38.9474 30C41.3204 30 43.5962 30.9427 45.2741 32.6206C46.9521 34.2986 47.8947 36.5744 47.8947 38.9474V38.9474Z" stroke="#286086" stroke-width="3" stroke-linecap="round"/>
</svg>
