<svg width="81" height="80" viewBox="0 0 81 80" fill="none" xmlns="http://www.w3.org/2000/svg">
<rect x="0.5" width="80" height="80" rx="40" fill="#F2F2F2"/>
<path d="M33.2321 32.7321C33.2321 31.9744 33.5332 31.2477 34.069 30.7118C34.6048 30.176 35.3315 29.875 36.0893 29.875C36.847 29.875 37.5738 30.176 38.1096 30.7118C38.6454 31.2477 38.9464 31.9744 38.9464 32.7321C38.9464 33.4899 38.6454 34.2166 38.1096 34.7524C37.5738 35.2883 36.847 35.5893 36.0893 35.5893C35.3315 35.5893 34.6048 35.2883 34.069 34.7524C33.5332 34.2166 33.2321 33.4899 33.2321 32.7321V32.7321ZM42.9164 34.995L42.9764 35.0407C43.5826 35.49 44.3418 35.6813 45.0885 35.5729C45.8351 35.4644 46.5086 35.0651 46.9619 34.4619C47.4152 33.8588 47.6115 33.1008 47.508 32.3534C47.4045 31.6061 47.0095 30.93 46.4094 30.4727C45.8092 30.0155 45.0526 29.8142 44.3046 29.9127C43.5565 30.0113 42.8779 30.4018 42.4166 30.9989C41.9554 31.596 41.7491 32.3513 41.8428 33.1C41.9364 33.8486 42.3224 34.5299 42.9164 34.995V34.995ZM37.9007 37.0179C38.0801 36.6781 38.3263 36.378 38.6244 36.1356C38.9224 35.8931 39.2664 35.7133 39.6356 35.6068C40.0047 35.5004 40.3916 35.4695 40.773 35.516C41.1544 35.5625 41.5225 35.6854 41.8553 35.8775C42.1881 36.0696 42.4788 36.3268 42.7098 36.6337C42.9409 36.9407 43.1077 37.2912 43.2003 37.6641C43.2928 38.037 43.3091 38.4248 43.2483 38.8042C43.1875 39.1836 43.0508 39.5468 42.8464 39.8721C42.4532 40.498 41.8326 40.9472 41.1152 41.1252C40.3978 41.3032 39.6393 41.1962 38.999 40.8267C38.3588 40.4572 37.8867 39.854 37.6819 39.1437C37.4771 38.4335 37.5555 37.6715 37.9007 37.0179V37.0179ZM32.5179 37.0179H36.3321C36.0782 37.7429 36.023 38.5228 36.1723 39.2764C36.3215 40.03 36.6697 40.7299 37.1807 41.3036H36.8036C36.0671 41.3035 35.3485 41.531 34.7463 41.955C34.144 42.379 33.6875 42.9787 33.4393 43.6721C32.9598 43.4795 32.5108 43.2182 32.1064 42.8964C31.0321 42.0321 30.375 40.755 30.375 39.1607C30.375 38.5924 30.6008 38.0473 31.0026 37.6455C31.4045 37.2436 31.9495 37.0179 32.5179 37.0179V37.0179ZM43.9464 41.3036C44.6828 41.3036 45.4011 41.5311 46.0031 41.9551C46.6051 42.3791 47.0613 42.9788 47.3093 43.6721C47.795 43.4736 48.245 43.215 48.6436 42.8964C49.7179 42.0321 50.375 40.755 50.375 39.1607C50.375 38.5924 50.1492 38.0473 49.7474 37.6455C49.3455 37.2436 48.8005 37.0179 48.2321 37.0179H44.4179C44.575 37.465 44.6607 37.9464 44.6607 38.4464C44.662 39.5009 44.2733 40.5186 43.5693 41.3036H43.9464ZM45.9279 44.0579C46.0321 44.3093 46.0893 44.5864 46.0893 44.875C46.0893 46.4693 45.4336 47.7464 44.3579 48.6107C43.2993 49.4607 41.8793 49.875 40.375 49.875C38.8707 49.875 37.4507 49.4607 36.3921 48.6107C35.3179 47.7464 34.6607 46.4693 34.6607 44.875C34.66 44.5934 34.7149 44.3144 34.8223 44.0541C34.9297 43.7937 35.0875 43.5572 35.2867 43.3581C35.4858 43.159 35.7223 43.0011 35.9826 42.8937C36.243 42.7863 36.522 42.7314 36.8036 42.7321H43.9464C44.3709 42.732 44.7858 42.858 45.1385 43.094C45.4913 43.33 45.766 43.6655 45.9279 44.0579Z" fill="#286086"/>
</svg>
