<svg width="40" height="40" viewBox="0 0 40 40" fill="none" xmlns="http://www.w3.org/2000/svg">
<path fill-rule="evenodd" clip-rule="evenodd" d="M20 40C31.0457 40 40 31.0457 40 20C40 8.9543 31.0457 0 20 0C8.9543 0 0 8.9543 0 20C0 31.0457 8.9543 40 20 40ZM21.6719 20.8919V30H18.0285V20.8852H15V17.3191H18.0219V14.702C18.0219 11.6582 19.8678 10.0002 22.5564 10.0002C23.4629 9.99662 24.3689 10.0437 25.2703 10.1413V13.3207H23.4178C21.9558 13.3207 21.6719 14.0253 21.6719 15.0543V17.3258H25.1658L24.7136 20.8919H21.6719Z" fill="white"/>
</svg>
