<svg width="32" height="32" viewBox="0 0 32 32" fill="none" xmlns="http://www.w3.org/2000/svg">
<circle cx="16" cy="16" r="16" fill="#1C1E27"/>
<path d="M23.7288 10.9311C21.1857 6.99987 15.9938 5.83111 11.9673 8.27488C8.04685 10.7186 6.77534 16.0312 9.31835 19.9625L9.53027 20.2812L8.6826 23.4687L11.8614 22.6187L12.1792 22.8312C13.5567 23.575 15.0401 24 16.5236 24C18.1129 24 19.7023 23.575 21.0798 22.725C25.0003 20.175 26.1658 14.9687 23.7288 10.9311ZM21.5036 19.1125C21.0798 19.75 20.55 20.175 19.8083 20.2812C19.3844 20.2812 18.8546 20.4937 16.7355 19.6437C14.9342 18.7937 13.4507 17.4124 12.3912 15.8187C11.7554 15.0749 11.4375 14.1187 11.3316 13.1624C11.3316 12.3124 11.6494 11.5687 12.1792 11.0374C12.3912 10.8249 12.6031 10.7186 12.815 10.7186H13.3448C13.5567 10.7186 13.7686 10.7186 13.8746 11.1437C14.0865 11.6749 14.6163 12.9499 14.6163 13.0562C14.7223 13.1624 14.7223 13.3749 14.6163 13.4812C14.7223 13.6937 14.6163 13.9062 14.5103 14.0124C14.4044 14.1187 14.2984 14.3312 14.1925 14.4374C13.9805 14.5437 13.8746 14.7562 13.9805 14.9687C14.4044 15.6062 14.9342 16.2437 15.464 16.7749C16.0997 17.3062 16.7355 17.7312 17.4772 18.05C17.6891 18.1562 17.901 18.1562 18.007 17.9437C18.1129 17.7312 18.6427 17.1999 18.8546 16.9874C19.0666 16.7749 19.1725 16.7749 19.3844 16.8812L21.0798 17.7312C21.2917 17.8375 21.5036 17.9437 21.6096 18.05C21.7155 18.3687 21.7155 18.7937 21.5036 19.1125Z" fill="white"/>
</svg>
