<svg width="100" height="100" viewBox="0 0 100 100" fill="none" xmlns="http://www.w3.org/2000/svg">
<path fill-rule="evenodd" clip-rule="evenodd" d="M29.3864 0.3C34.7182 0.0545454 36.4182 0 50 0C63.5818 0 65.2818 0.0590908 70.6091 0.3C75.9364 0.540909 79.5727 1.39091 82.7545 2.62273C86.0864 3.88182 89.1091 5.85 91.6091 8.39545C94.1545 10.8909 96.1182 13.9091 97.3727 17.2455C98.6091 20.4273 99.4545 24.0636 99.7 29.3818C99.9455 34.7227 100 36.4227 100 50C100 63.5818 99.9409 65.2818 99.7 70.6136C99.4591 75.9318 98.6091 79.5682 97.3727 82.75C96.1181 86.0868 94.1513 89.11 91.6091 91.6091C89.1091 94.1545 86.0864 96.1182 82.7545 97.3727C79.5727 98.6091 75.9364 99.4545 70.6182 99.7C65.2818 99.9455 63.5818 100 50 100C36.4182 100 34.7182 99.9409 29.3864 99.7C24.0682 99.4591 20.4318 98.6091 17.25 97.3727C13.9133 96.118 10.8901 94.1512 8.39091 91.6091C5.84718 89.1121 3.8787 86.0904 2.62273 82.7545C1.39091 79.5727 0.545454 75.9364 0.3 70.6182C0.0545454 65.2773 0 63.5773 0 50C0 36.4182 0.0590908 34.7182 0.3 29.3909C0.540909 24.0636 1.39091 20.4273 2.62273 17.2455C3.88056 13.9095 5.85054 10.8878 8.39545 8.39091C10.8911 5.84773 13.9112 3.87929 17.2455 2.62273C20.4273 1.39091 24.0636 0.545454 29.3818 0.3H29.3864ZM70.2045 9.3C64.9318 9.05909 63.35 9.00909 50 9.00909C36.65 9.00909 35.0682 9.05909 29.7955 9.3C24.9182 9.52273 22.2727 10.3364 20.5091 11.0227C18.1773 11.9318 16.5091 13.0091 14.7591 14.7591C13.1002 16.373 11.8235 18.3376 11.0227 20.5091C10.3364 22.2727 9.52273 24.9182 9.3 29.7955C9.05909 35.0682 9.00909 36.65 9.00909 50C9.00909 63.35 9.05909 64.9318 9.3 70.2045C9.52273 75.0818 10.3364 77.7273 11.0227 79.4909C11.8227 81.6591 13.1 83.6273 14.7591 85.2409C16.3727 86.9 18.3409 88.1773 20.5091 88.9773C22.2727 89.6636 24.9182 90.4773 29.7955 90.7C35.0682 90.9409 36.6455 90.9909 50 90.9909C63.3545 90.9909 64.9318 90.9409 70.2045 90.7C75.0818 90.4773 77.7273 89.6636 79.4909 88.9773C81.8227 88.0682 83.4909 86.9909 85.2409 85.2409C86.9 83.6273 88.1773 81.6591 88.9773 79.4909C89.6636 77.7273 90.4773 75.0818 90.7 70.2045C90.9409 64.9318 90.9909 63.35 90.9909 50C90.9909 36.65 90.9409 35.0682 90.7 29.7955C90.4773 24.9182 89.6636 22.2727 88.9773 20.5091C88.0682 18.1773 86.9909 16.5091 85.2409 14.7591C83.6269 13.1003 81.6623 11.8237 79.4909 11.0227C77.7273 10.3364 75.0818 9.52273 70.2045 9.3V9.3ZM43.6136 65.4136C47.1803 66.8983 51.1517 67.0987 54.8497 65.9806C58.5476 64.8624 61.7427 62.4951 63.8891 59.2829C66.0356 56.0708 67.0003 52.213 66.6184 48.3687C66.2365 44.5243 64.5318 40.9317 61.7955 38.2045C60.0511 36.4613 57.9419 35.1264 55.6197 34.2961C53.2975 33.4658 50.8201 33.1607 48.3659 33.4028C45.9116 33.6449 43.5416 34.4281 41.4264 35.696C39.3112 36.964 37.5034 38.6852 36.1332 40.7357C34.763 42.7862 33.8645 45.1149 33.5023 47.5544C33.1402 49.9938 33.3234 52.4831 34.0388 54.8433C34.7542 57.2034 35.984 59.3755 37.6396 61.2033C39.2953 63.0311 41.3356 64.469 43.6136 65.4136ZM31.8273 31.8273C34.2137 29.4408 37.0469 27.5477 40.165 26.2562C43.2831 24.9646 46.625 24.2999 50 24.2999C53.375 24.2999 56.7169 24.9646 59.835 26.2562C62.9531 27.5477 65.7863 29.4408 68.1727 31.8273C70.5592 34.2137 72.4523 37.0469 73.7438 40.165C75.0354 43.2831 75.7001 46.625 75.7001 50C75.7001 53.375 75.0354 56.7169 73.7438 59.835C72.4523 62.9531 70.5592 65.7863 68.1727 68.1727C63.353 72.9924 56.8161 75.7001 50 75.7001C43.1839 75.7001 36.647 72.9924 31.8273 68.1727C27.0076 63.353 24.2999 56.8161 24.2999 50C24.2999 43.1839 27.0076 36.647 31.8273 31.8273V31.8273ZM81.4 28.1273C81.9914 27.5694 82.4648 26.8985 82.7923 26.1544C83.1198 25.4103 83.2946 24.608 83.3064 23.7951C83.3183 22.9822 83.1669 22.1752 82.8613 21.4219C82.5556 20.6685 82.102 19.9841 81.5271 19.4093C80.9522 18.8344 80.2679 18.3807 79.5145 18.0751C78.7612 17.7694 77.9541 17.6181 77.1412 17.6299C76.3283 17.6418 75.5261 17.8166 74.7819 18.1441C74.0378 18.4715 73.367 18.945 72.8091 19.5364C71.7241 20.6865 71.1301 22.2142 71.1532 23.7951C71.1762 25.3761 71.8145 26.8858 72.9325 28.0038C74.0505 29.1218 75.5603 29.7601 77.1412 29.7832C78.7222 29.8062 80.2499 29.2122 81.4 28.1273V28.1273Z" fill="white"/>
</svg>
