<svg width="101" height="101" viewBox="0 0 101 101" fill="none" xmlns="http://www.w3.org/2000/svg">
<path fill-rule="evenodd" clip-rule="evenodd" d="M0.0834973 8.43781C0.0834973 6.22205 0.963706 4.09703 2.53049 2.53025C4.09727 0.963471 6.22228 0.0832631 8.43804 0.0832631H91.7198C92.8179 0.0814697 93.9056 0.296276 94.9205 0.715384C95.9354 1.13449 96.8577 1.74967 97.6346 2.5257C98.4115 3.30173 99.0277 4.22337 99.4479 5.23785C99.8681 6.25234 100.084 7.33974 100.083 8.43781V91.7196C100.085 92.8179 99.8693 93.9056 99.4497 94.9206C99.0301 95.9356 98.4145 96.8578 97.6381 97.6347C96.8617 98.4115 95.9398 99.0276 94.925 99.4477C93.9103 99.8679 92.8227 100.084 91.7244 100.083H8.43804C7.34052 100.083 6.25376 99.867 5.23985 99.4469C4.22593 99.0267 3.30473 98.4109 2.52888 97.6347C1.75303 96.8584 1.13773 95.9368 0.718144 94.9227C0.298556 93.9086 0.0829002 92.8217 0.0834973 91.7242V8.43781ZM39.6653 38.2105H53.2062V45.0105C55.1608 41.1014 60.1608 37.5833 67.6744 37.5833C82.0789 37.5833 85.4926 45.3696 85.4926 59.656V86.1196H70.9153V62.9105C70.9153 54.7742 68.9608 50.1833 63.9971 50.1833C57.1108 50.1833 54.2471 55.1333 54.2471 62.9105V86.1196H39.6653V38.2105ZM14.6653 85.4969H29.2471V37.5833H14.6653V85.4923V85.4969ZM31.3335 21.956C31.361 23.2045 31.1388 24.4459 30.68 25.6074C30.2213 26.7689 29.5351 27.8271 28.6618 28.7198C27.7885 29.6125 26.7458 30.3218 25.5947 30.806C24.4435 31.2903 23.2073 31.5397 21.9585 31.5397C20.7097 31.5397 19.4734 31.2903 18.3223 30.806C17.1712 30.3218 16.1284 29.6125 15.2552 28.7198C14.3819 27.8271 13.6957 26.7689 13.237 25.6074C12.7782 24.4459 12.556 23.2045 12.5835 21.956C12.6375 19.5053 13.6489 17.1732 15.4012 15.4591C17.1534 13.745 19.5072 12.7852 21.9585 12.7852C24.4098 12.7852 26.7636 13.745 28.5158 15.4591C30.2681 17.1732 31.2795 19.5053 31.3335 21.956V21.956Z" fill="white"/>
</svg>
