<svg width="40" height="40" viewBox="0 0 40 40" fill="none" xmlns="http://www.w3.org/2000/svg">
<path fill-rule="evenodd" clip-rule="evenodd" d="M20 40C31.0457 40 40 31.0457 40 20C40 8.9543 31.0457 0 20 0C8.9543 0 0 8.9543 0 20C0 31.0457 8.9543 40 20 40ZM10.4894 10.4894C10.176 10.8028 10 11.2278 10 11.6709V28.3282C9.99988 28.5477 10.043 28.7651 10.1269 28.9679C10.2108 29.1707 10.3339 29.355 10.4891 29.5103C10.6442 29.6655 10.8285 29.7887 11.0313 29.8727C11.2341 29.9568 11.4514 30 11.6709 30H28.3282C28.5478 30.0001 28.7654 29.9569 28.9683 29.8729C29.1713 29.7889 29.3556 29.6656 29.5109 29.5103C29.6662 29.3549 29.7893 29.1705 29.8732 28.9675C29.9572 28.7645 30.0002 28.5469 30 28.3273V11.6709C30.0001 11.4513 29.9569 11.2338 29.8729 11.0309C29.7888 10.828 29.6656 10.6437 29.5102 10.4885C29.3548 10.3333 29.1704 10.2102 28.9674 10.1264C28.7644 10.0426 28.5469 9.99964 28.3273 10H11.6709C11.2278 10 10.8028 10.176 10.4894 10.4894ZM20.6245 17.6255H17.9164V27.2073H20.8327V22.5655C20.8327 21.01 21.4055 20.02 22.7827 20.02C23.7755 20.02 24.1664 20.9382 24.1664 22.5655V27.2073H27.0818V21.9145C27.0818 19.0573 26.3991 17.5 23.5182 17.5C22.0155 17.5 21.0155 18.2036 20.6245 18.9855V17.6255ZM15.8327 27.0827H12.9164V27.0818V17.5H15.8327V27.0827ZM16.1193 15.1048C16.2111 14.8725 16.2555 14.6242 16.25 14.3745C16.2392 13.8844 16.0369 13.418 15.6865 13.0752C15.336 12.7323 14.8653 12.5404 14.375 12.5404C13.8847 12.5404 13.414 12.7323 13.0635 13.0752C12.7131 13.418 12.5108 13.8844 12.5 14.3745C12.4945 14.6242 12.5389 14.8725 12.6307 15.1048C12.7224 15.3371 12.8597 15.5488 13.0343 15.7273C13.209 15.9058 13.4175 16.0477 13.6478 16.1446C13.878 16.2414 14.1252 16.2913 14.375 16.2913C14.6248 16.2913 14.872 16.2414 15.1022 16.1446C15.3325 16.0477 15.541 15.9058 15.7157 15.7273C15.8903 15.5488 16.0276 15.3371 16.1193 15.1048Z" fill="white"/>
</svg>
