<svg width="13" height="20" viewBox="0 0 13 20" fill="none" xmlns="http://www.w3.org/2000/svg">
<path d="M0 6.25C0 4.5924 0.65848 3.00269 1.83058 1.83058C3.00269 0.65848 4.5924 0 6.25 0C7.9076 0 9.49732 0.65848 10.6694 1.83058C11.8415 3.00269 12.5 4.5924 12.5 6.25V13.75C12.5 15.4076 11.8415 16.9973 10.6694 18.1694C9.49732 19.3415 7.9076 20 6.25 20C4.5924 20 3.00269 19.3415 1.83058 18.1694C0.65848 16.9973 0 15.4076 0 13.75V6.25ZM6.875 4.375C6.875 4.20924 6.80915 4.05027 6.69194 3.93306C6.57473 3.81585 6.41576 3.75 6.25 3.75C6.08424 3.75 5.92527 3.81585 5.80806 3.93306C5.69085 4.05027 5.625 4.20924 5.625 4.375V6.875C5.625 7.04076 5.69085 7.19973 5.80806 7.31694C5.92527 7.43415 6.08424 7.5 6.25 7.5C6.41576 7.5 6.57473 7.43415 6.69194 7.31694C6.80915 7.19973 6.875 7.04076 6.875 6.875V4.375Z" fill="#E28F1D"/>
</svg>
