<svg width="81" height="80" viewBox="0 0 81 80" fill="none" xmlns="http://www.w3.org/2000/svg">
<rect x="0.5" width="80" height="80" rx="40" fill="#F2F2F2"/>
<g clip-path="url(#clip0_718_1948)">
<path d="M32.2222 32.7778C31.6329 32.7778 31.0676 33.0119 30.6509 33.4286C30.2341 33.8454 30 34.4106 30 35V45C30 45.5894 30.2341 46.1546 30.6509 46.5713C31.0676 46.9881 31.6329 47.2222 32.2222 47.2222H36.6667V32.7778H32.2222Z" fill="#009A49"/>
<path d="M36.6665 32.7778H43.3332V47.2222H36.6665V32.7778Z" fill="#EEEEEE"/>
<path d="M47.7779 32.7778H43.3335V47.2222H47.7779C48.3673 47.2222 48.9325 46.9881 49.3493 46.5713C49.766 46.1546 50.0002 45.5894 50.0002 45V35C50.0002 34.4106 49.766 33.8454 49.3493 33.4286C48.9325 33.0119 48.3673 32.7778 47.7779 32.7778V32.7778Z" fill="#009A49"/>
</g>
<defs>
<clipPath id="clip0_718_1948">
<rect width="20" height="20" fill="white" transform="translate(30 30)"/>
</clipPath>
</defs>
</svg>
