<svg width="81" height="80" viewBox="0 0 81 80" fill="none" xmlns="http://www.w3.org/2000/svg">
<rect x="0.5" width="80" height="80" rx="40" fill="#F2F2F2"/>
<path d="M50.6619 37.9019C50.7601 37.6648 50.7858 37.4038 50.7357 37.152C50.6856 36.9003 50.5619 36.6691 50.3803 36.4876L43.8927 30L42.058 31.8347L46.3308 36.1074H30.0002V38.7025H49.463C49.7196 38.7025 49.9704 38.6265 50.1838 38.484C50.3972 38.3415 50.5636 38.1389 50.6619 37.9019V37.9019ZM30.0988 42.0981C30.0005 42.3352 29.9749 42.5962 30.025 42.848C30.0751 43.0997 30.1988 43.3309 30.3803 43.5124L36.8679 50L38.7026 48.1653L34.4299 43.8926H50.7605V41.2975H31.2977C31.041 41.2973 30.7901 41.3732 30.5767 41.5158C30.3632 41.6583 30.1969 41.861 30.0988 42.0981V42.0981Z" fill="#286086"/>
</svg>
