<svg width="124" height="100" viewBox="0 0 124 100" fill="none" xmlns="http://www.w3.org/2000/svg">
<path d="M123.275 11.8453C119.847 16.9444 115.641 21.2912 110.658 24.8856C110.707 25.8496 110.732 26.9391 110.732 28.1543C110.732 34.9058 109.747 41.6655 107.779 48.4334C105.81 55.2013 102.803 61.6794 98.757 67.8676C94.7114 74.0559 89.8922 79.5382 84.2996 84.3144C78.707 89.0907 71.9845 92.899 64.132 95.7394C56.2794 98.5798 47.8636 100 38.8846 100C24.8713 100 11.9664 96.2169 0.169922 88.6507C2.26365 88.8837 4.27172 89.0002 6.19412 89.0002C17.9011 89.0002 28.3573 85.3943 37.5628 78.1825C32.1043 78.0825 27.2159 76.4022 22.8974 73.1416C18.5789 69.8812 15.6071 65.7149 13.9818 60.6428C15.5883 60.9488 17.1738 61.1018 18.7384 61.1018C20.9905 61.1018 23.2066 60.8081 25.3866 60.2206C19.5614 59.054 14.7289 56.1526 10.8891 51.5167C7.04945 46.8807 5.12962 41.53 5.12962 35.4644V35.1518C8.70515 37.1315 12.519 38.1846 16.5712 38.311C13.1204 36.0104 10.3844 33.0105 8.36331 29.3111C6.34205 25.6117 5.33142 21.6083 5.33142 17.3009C5.33142 12.758 6.46978 8.52776 8.74651 4.6101C15.0813 12.3839 22.7572 18.5969 31.7743 23.2493C40.7915 27.9017 50.4652 30.4855 60.7955 31.0007C60.3549 29.1645 60.1342 27.2483 60.1334 25.2522C60.1334 18.2824 62.5998 12.3313 67.5328 7.39879C72.4657 2.46626 78.4171 0 85.3868 0C92.6839 0 98.8303 2.65703 103.826 7.97109C109.534 6.84049 114.878 4.79553 119.859 1.8362C117.94 7.87553 114.243 12.5345 108.766 15.813C113.799 15.2149 118.636 13.8923 123.275 11.8453H123.275Z" fill="white"/>
</svg>
