<svg width="40" height="40" viewBox="0 0 40 40" fill="none" xmlns="http://www.w3.org/2000/svg">
<path fill-rule="evenodd" clip-rule="evenodd" d="M20 40C31.0457 40 40 31.0457 40 20C40 8.9543 31.0457 0 20 0C8.9543 0 0 8.9543 0 20C0 31.0457 8.9543 40 20 40ZM27.6438 14.5602C28.4744 14.4612 29.2645 14.2422 30 13.9181L29.9982 13.9207C29.4476 14.7397 28.7548 15.4546 27.9521 16.0319C27.96 16.2071 27.9644 16.3841 27.9644 16.5593C27.9644 21.9521 23.8378 28.1702 16.2891 28.1702C14.0591 28.1727 11.8757 27.5361 10 26.3367C10.3251 26.3747 10.6521 26.3937 10.9795 26.3936C12.8273 26.3963 14.6224 25.7808 16.0759 24.6459C15.2197 24.6303 14.3898 24.3488 13.7024 23.8408C13.0151 23.3328 12.5046 22.6237 12.2426 21.8129C12.8577 21.9294 13.4914 21.9055 14.0958 21.7428C13.1671 21.5561 12.3318 21.0556 11.7319 20.3262C11.1319 19.5968 10.8041 18.6835 10.8042 17.7411V17.6885C11.374 18.0035 12.0112 18.1786 12.6627 18.1992C12.1009 17.8261 11.6404 17.3208 11.322 16.7282C11.0036 16.1355 10.8373 15.4739 10.8377 14.802C10.8377 14.0556 11.0403 13.3548 11.3926 12.7503C12.423 14.0111 13.7085 15.0423 15.1655 15.7769C16.6226 16.5116 18.2187 16.9334 19.8503 17.0148C19.6437 16.1395 19.7336 15.2208 20.1058 14.4014C20.4781 13.582 21.1119 12.9078 21.909 12.4834C22.706 12.059 23.6216 11.9081 24.5136 12.0543C25.4057 12.2005 26.2242 12.6355 26.8422 13.2917C27.7612 13.1123 28.6425 12.7775 29.4477 12.3018C29.142 13.2475 28.5008 14.0502 27.6438 14.5602Z" fill="white"/>
</svg>
