<svg width="81" height="80" viewBox="0 0 81 80" fill="none" xmlns="http://www.w3.org/2000/svg">
<rect x="0.5" width="80" height="80" rx="40" fill="#F2F2F2"/>
<path d="M37.2381 50L35.4286 46.9524L32 46.1905L32.3333 42.6667L30 40L32.3333 37.3333L32 33.8095L35.4286 33.0476L37.2381 30L40.4762 31.381L43.7143 30L45.5238 33.0476L48.9524 33.8095L48.619 37.3333L50.9524 40L48.619 42.6667L48.9524 46.1905L45.5238 46.9524L43.7143 50L40.4762 48.619L37.2381 50ZM39.4762 43.381L44.8571 38L43.5238 36.619L39.4762 40.6667L37.4286 38.6667L36.0952 40L39.4762 43.381Z" fill="#286086"/>
</svg>
