<svg width="102" height="100" viewBox="0 0 102 100" fill="none" xmlns="http://www.w3.org/2000/svg">
<path d="M93.6667 23.1247C78.6666 -0.000520295 48.0413 -6.87557 24.2912 7.49954C1.16598 21.8746 -6.33407 53.1249 8.66604 76.2501L9.91605 78.1251L4.91601 96.8752L23.6662 91.8752L25.5412 93.1252C33.6662 97.5002 42.4163 100 51.1664 100C60.5414 100 69.9165 97.5002 78.0416 92.5002C101.167 77.5001 108.042 46.8748 93.6667 23.1247V23.1247ZM80.5416 71.25C78.0416 75.0001 74.9165 77.5001 70.5415 78.1251C68.0415 78.1251 64.9165 79.3751 52.4164 74.375C41.7913 69.375 33.0412 61.2499 26.7912 51.8749C23.0411 47.4998 21.1661 41.8748 20.5411 36.2498C20.5411 31.2497 22.4161 26.8747 25.5412 23.7497C26.7912 22.4997 28.0412 21.8746 29.2912 21.8746H32.4162C33.6662 21.8746 34.9162 21.8746 35.5412 24.3747C36.7913 27.4997 39.9163 34.9997 39.9163 35.6248C40.5413 36.2498 40.5413 37.4998 39.9163 38.1248C40.5413 39.3748 39.9163 40.6248 39.2913 41.2498C38.6663 41.8748 38.0413 43.1248 37.4163 43.7498C36.1663 44.3748 35.5412 45.6248 36.1663 46.8748C38.6663 50.6249 41.7913 54.3749 44.9163 57.4999C48.6663 60.6249 52.4164 63.125 56.7914 65C58.0414 65.625 59.2914 65.625 59.9164 64.375C60.5414 63.125 63.6665 59.9999 64.9165 58.7499C66.1665 57.4999 66.7915 57.4999 68.0415 58.1249L78.0416 63.125C79.2916 63.75 80.5416 64.375 81.1666 65C81.7916 66.875 81.7916 69.375 80.5416 71.25V71.25Z" fill="white"/>
</svg>
