<svg width="8" height="9" viewBox="0 0 8 9" fill="none" xmlns="http://www.w3.org/2000/svg">
<g clip-path="url(#clip0_842_155)">
<path d="M3.63638 4.84844C4.30582 4.84844 4.8485 4.30575 4.8485 3.63632C4.8485 2.96688 4.30582 2.42419 3.63638 2.42419C2.96694 2.42419 2.42426 2.96688 2.42426 3.63632C2.42426 4.30575 2.96694 4.84844 3.63638 4.84844Z" fill="white" stroke="white" stroke-width="0.592593" stroke-linecap="round" stroke-linejoin="round"/>
<path d="M3.63632 0.404053C2.77905 0.404053 1.9569 0.744601 1.35072 1.35078C0.74454 1.95696 0.403992 2.77911 0.403992 3.63638C0.403992 4.40083 0.566416 4.90103 1.01005 5.45457L3.63632 8.48487L6.26259 5.45457C6.70622 4.90103 6.86865 4.40083 6.86865 3.63638C6.86865 2.77911 6.5281 1.95696 5.92192 1.35078C5.31574 0.744601 4.49359 0.404053 3.63632 0.404053V0.404053Z" stroke="white" stroke-width="0.592593" stroke-linecap="round" stroke-linejoin="round"/>
</g>
<defs>
<clipPath id="clip0_842_155">
<rect width="7.27274" height="8.8889" fill="white"/>
</clipPath>
</defs>
</svg>
