<svg width="8" height="9" viewBox="0 0 8 9" fill="none" xmlns="http://www.w3.org/2000/svg">
<g clip-path="url(#clip0_632_6)">
<path d="M3.6364 4.84847C4.30584 4.84847 4.84852 4.30578 4.84852 3.63635C4.84852 2.96691 4.30584 2.42422 3.6364 2.42422C2.96696 2.42422 2.42428 2.96691 2.42428 3.63635C2.42428 4.30578 2.96696 4.84847 3.6364 4.84847Z" fill="black" stroke="black" stroke-width="0.592593" stroke-linecap="round" stroke-linejoin="round"/>
<path d="M3.63635 0.404053C2.77908 0.404053 1.95693 0.744601 1.35075 1.35078C0.74457 1.95696 0.404022 2.77911 0.404022 3.63638C0.404022 4.40083 0.566447 4.90103 1.01008 5.45457L3.63635 8.48487L6.26262 5.45457C6.70625 4.90103 6.86868 4.40083 6.86868 3.63638C6.86868 2.77911 6.52813 1.95696 5.92195 1.35078C5.31577 0.744601 4.49362 0.404053 3.63635 0.404053V0.404053Z" stroke="black" stroke-width="0.592593" stroke-linecap="round" stroke-linejoin="round"/>
</g>
<defs>
<clipPath id="clip0_632_6">
<rect width="7.27274" height="8.8889" fill="white"/>
</clipPath>
</defs>
</svg>
