<svg width="39" height="31" viewBox="0 0 39 31" fill="none" xmlns="http://www.w3.org/2000/svg">
<g clip-path="url(#clip0_195_379)">
<path d="M38.1626 3.67204C37.0998 5.25277 35.7961 6.60027 34.2512 7.71454C34.2665 8.01338 34.2741 8.35114 34.2741 8.72783C34.2741 10.8208 33.9689 12.9163 33.3587 15.0144C32.7484 17.1124 31.8161 19.1206 30.562 21.039C29.3078 22.9573 27.8139 24.6569 26.0802 26.1375C24.3465 27.6181 22.2625 28.7987 19.8282 29.6792C17.3939 30.5598 14.785 31 12.0015 31C7.65739 31 3.65687 29.8273 -3.05176e-05 27.4817C0.649026 27.554 1.27153 27.5901 1.86747 27.5901C5.49664 27.5901 8.73807 26.4723 11.5918 24.2366C9.89964 24.2056 8.38421 23.6847 7.04549 22.6739C5.70677 21.6632 4.78549 20.3716 4.28166 18.7993C4.77966 18.8942 5.27118 18.9416 5.7562 18.9416C6.45436 18.9416 7.14134 18.8505 7.81714 18.6684C6.01133 18.3067 4.51326 17.4073 3.32292 15.9702C2.13262 14.533 1.53748 12.8743 1.53748 10.994V10.8971C2.64589 11.5108 3.82819 11.8372 5.08437 11.8764C4.01462 11.1632 3.16647 10.2333 2.53992 9.08644C1.91333 7.93963 1.60003 6.69857 1.60003 5.36328C1.60003 3.95499 1.95293 2.64361 2.65871 1.42913C4.6225 3.83901 7.00204 5.76506 9.79733 7.20728C12.5927 8.64953 15.5915 9.4505 18.7939 9.61022C18.6573 9.04099 18.5889 8.44698 18.5886 7.82818C18.5886 5.66756 19.3532 3.82271 20.8825 2.29363C22.4117 0.764543 24.2566 0 26.4172 0C28.6793 0 30.5847 0.82368 32.1334 2.47104C33.9028 2.12055 35.5596 1.48662 37.1037 0.569222C36.5088 2.44142 35.3625 3.88568 33.6648 4.90203C35.2251 4.71661 36.7244 4.30661 38.1625 3.67204H38.1626Z" fill="white"/>
</g>
<defs>
<clipPath id="clip0_195_379">
<rect width="38.1626" height="31" fill="white"/>
</clipPath>
</defs>
</svg>
