<svg width="41" height="41" viewBox="0 0 41 41" fill="none" xmlns="http://www.w3.org/2000/svg">
<path d="M35.7845 14.1879C35.7672 12.8941 35.525 11.6131 35.0687 10.4023C34.6729 9.38095 34.0685 8.4534 33.294 7.6789C32.5195 6.9044 31.5919 6.29997 30.5706 5.90423C29.3754 5.45555 28.1126 5.21294 26.8362 5.18673C25.1928 5.11327 24.6717 5.09277 20.5 5.09277C16.3282 5.09277 15.7935 5.09277 14.1621 5.18673C12.8862 5.21313 11.6241 5.45574 10.4294 5.90423C9.40789 6.29969 8.4802 6.90402 7.70566 7.67856C6.93112 8.4531 6.32679 9.38079 5.93133 10.4023C5.48175 11.5966 5.23967 12.859 5.21554 14.135C5.14208 15.7801 5.11987 16.3011 5.11987 20.4729C5.11987 24.6446 5.11987 25.1776 5.21554 26.8108C5.24116 28.0886 5.48204 29.3494 5.93133 30.5469C6.32746 31.5681 6.93224 32.4954 7.70703 33.2696C8.48183 34.0438 9.40961 34.6479 10.4311 35.0433C11.6225 35.51 12.8849 35.77 14.1638 35.812C15.8089 35.8855 16.33 35.9077 20.5017 35.9077C24.6735 35.9077 25.2082 35.9077 26.8396 35.812C28.116 35.7869 29.3788 35.5448 30.574 35.0962C31.5951 34.7 32.5224 34.0954 33.2968 33.321C34.0713 32.5466 34.6759 31.6192 35.0721 30.5982C35.5214 29.4024 35.7622 28.1416 35.7879 26.8621C35.8613 25.2186 35.8835 24.6976 35.8835 20.5241C35.8801 16.3524 35.8801 15.8228 35.7845 14.1879ZM20.4897 28.362C16.1267 28.362 12.5921 24.8274 12.5921 20.4644C12.5921 16.1013 16.1267 12.5667 20.4897 12.5667C22.5843 12.5667 24.5931 13.3988 26.0742 14.8799C27.5553 16.361 28.3874 18.3698 28.3874 20.4644C28.3874 22.5589 27.5553 24.5677 26.0742 26.0488C24.5931 27.5299 22.5843 28.362 20.4897 28.362ZM28.7017 14.1162C28.4598 14.1164 28.2202 14.0689 27.9967 13.9765C27.7732 13.884 27.5701 13.7484 27.399 13.5773C27.228 13.4063 27.0923 13.2031 26.9998 12.9796C26.9074 12.7561 26.8599 12.5165 26.8601 12.2746C26.8601 12.0329 26.9077 11.7935 27.0002 11.5702C27.0927 11.3469 27.2283 11.1439 27.3993 10.973C27.5702 10.8021 27.7731 10.6665 27.9964 10.574C28.2198 10.4815 28.4591 10.4339 28.7009 10.4339C28.9426 10.4339 29.1819 10.4815 29.4053 10.574C29.6286 10.6665 29.8315 10.8021 30.0024 10.973C30.1734 11.1439 30.309 11.3469 30.4015 11.5702C30.494 11.7935 30.5416 12.0329 30.5416 12.2746C30.5416 13.2928 29.7182 14.1162 28.7017 14.1162Z" fill="white"/>
<path d="M20.4897 25.5942C23.323 25.5942 25.6199 23.2974 25.6199 20.4641C25.6199 17.6308 23.323 15.334 20.4897 15.334C17.6565 15.334 15.3596 17.6308 15.3596 20.4641C15.3596 23.2974 17.6565 25.5942 20.4897 25.5942Z" fill="white"/>
</svg>
