<svg width="19" height="20" viewBox="0 0 19 20" fill="none" xmlns="http://www.w3.org/2000/svg">
<path d="M17.0804 6.65186C17.258 6.65186 17.4283 6.72241 17.5539 6.84799C17.6794 6.97357 17.75 7.1439 17.75 7.3215V16.3617C17.75 17.6273 16.6719 18.7054 15.4062 18.7054H4.02232C2.7567 18.7054 1.67857 17.6796 1.67857 16.414V7.3215C1.67857 7.1439 1.74912 6.97357 1.8747 6.84799C2.00029 6.72241 2.17061 6.65186 2.34821 6.65186H17.0804Z" stroke="white" stroke-linecap="round" stroke-linejoin="round"/>
<path d="M13.7321 6.65182V5.31254C13.7321 4.24693 13.3088 3.22498 12.5553 2.47148C11.8018 1.71799 10.7799 1.29468 9.71429 1.29468C8.64869 1.29468 7.62673 1.71799 6.87324 2.47148C6.11974 3.22498 5.69643 4.24693 5.69643 5.31254V6.65182" stroke="white" stroke-linecap="round" stroke-linejoin="round"/>
<path d="M13.7321 8.66077V9.33041C13.7321 10.396 13.3088 11.418 12.5553 12.1715C11.8018 12.925 10.7799 13.3483 9.71429 13.3483C8.64869 13.3483 7.62673 12.925 6.87324 12.1715C6.11974 11.418 5.69643 10.396 5.69643 9.33041V8.66077" stroke="white" stroke-linecap="round" stroke-linejoin="round"/>
</svg>
