<svg width="101" height="41" viewBox="0 0 101 41" fill="none" xmlns="http://www.w3.org/2000/svg">
<path d="M19.4716 35.8907H15.1598C15.0521 35.8965 14.9446 35.8762 14.8465 35.8316C14.7483 35.787 14.6624 35.7193 14.596 35.6344C14.5283 35.5476 14.4796 35.4476 14.4531 35.3407C14.4266 35.2339 14.4229 35.1227 14.4423 35.0143C14.5106 34.6026 14.596 34.0593 14.7019 33.3692L14.8967 32.1272C15.0904 30.8806 15.2886 29.6346 15.4912 28.3894V28.3552L15.8123 26.3667L15.9832 25.3092V25.3007C16.1062 24.5405 16.2035 23.9375 16.2736 23.4882C16.2775 23.3969 16.3001 23.3074 16.34 23.2252C16.38 23.1431 16.4364 23.07 16.5057 23.0106C16.5751 22.9511 16.656 22.9066 16.7433 22.8797C16.8306 22.8528 16.9225 22.8442 17.0133 22.8544H19.61C20.857 22.868 22.099 22.7467 23.3188 22.4922C25.155 22.1258 26.8583 21.2706 28.249 20.0168C29.4676 18.8462 30.3823 17.3961 30.914 15.7921C31.1737 15.0473 31.3753 14.282 31.5153 13.5064C31.5273 13.4346 31.541 13.3936 31.558 13.38C31.563 13.3734 31.5695 13.368 31.5769 13.3645C31.5843 13.3609 31.5925 13.3592 31.6008 13.3595H31.6178C31.6553 13.3753 31.6909 13.3953 31.7238 13.4192C32.6206 14.0975 33.2203 15.0968 33.3979 16.2072C33.5995 17.3689 33.5773 18.5579 33.3296 19.711C33.006 21.9419 31.8777 23.9774 30.1572 25.434C28.2567 26.7887 25.9537 27.4606 23.6228 27.3405H22.8729C22.5937 27.3381 22.3235 27.4391 22.1144 27.624C21.8975 27.8123 21.7531 28.0702 21.7061 28.3535L21.6378 28.6849L20.6913 34.6265L20.6572 34.8845C20.6079 35.1709 20.4569 35.43 20.2318 35.6139C20.0205 35.7956 19.7502 35.894 19.4716 35.8907ZM13.3592 32.474H8.29397C8.17459 32.4765 8.05615 32.4525 7.94715 32.4038C7.83816 32.355 7.74131 32.2828 7.66359 32.1921C7.58263 32.1031 7.52289 31.997 7.48886 31.8816C7.45484 31.7662 7.44741 31.6446 7.46713 31.5259L11.4493 6.25962C11.4993 5.93546 11.668 5.64142 11.9225 5.4345C12.1683 5.22251 12.4828 5.10715 12.8074 5.10991H23.0813C23.645 5.13212 24.2054 5.20729 24.7555 5.3337C25.408 5.45841 26.0504 5.6412 26.6722 5.88037C27.8037 6.28046 28.7847 7.01879 29.4824 7.99529C30.1435 8.99124 30.4835 10.1683 30.4528 11.3641C30.4243 12.7509 30.1585 14.1226 29.6669 15.4197C29.2797 16.6624 28.6086 17.7979 27.7066 18.7364C26.8046 19.6748 25.6966 20.3905 24.4702 20.8266C23.0749 21.2991 21.6127 21.5442 20.1395 21.5526C20.1225 21.5629 19.3879 21.5646 18.602 21.5646L17.0645 21.5526C16.5774 21.5029 16.0905 21.6483 15.7104 21.957C15.3303 22.2657 15.088 22.7125 15.0368 23.1995C15.0145 23.2917 14.4952 26.5256 13.5761 32.3032C13.5762 32.3302 13.5702 32.3569 13.5586 32.3814C13.547 32.4059 13.5302 32.4275 13.5093 32.4446C13.4884 32.4618 13.4639 32.4741 13.4376 32.4806C13.4114 32.4872 13.384 32.4878 13.3575 32.4825L13.3592 32.474Z" fill="white"/>
<path d="M42.9453 21.9902L42.0664 27H39.2051L41.6758 12.7812L46.6562 12.791C48.1927 12.791 49.4004 13.2174 50.2793 14.0703C51.1582 14.9232 51.5423 16.0365 51.4316 17.4102C51.3275 18.8034 50.7448 19.9167 49.6836 20.75C48.6289 21.5833 47.2812 22 45.6406 22L42.9453 21.9902ZM43.3457 19.6172L45.7285 19.6367C46.4967 19.6367 47.1348 19.4382 47.6426 19.041C48.1504 18.6439 48.4531 18.1068 48.5508 17.4297C48.6484 16.7526 48.5378 16.2122 48.2188 15.8086C47.9062 15.4049 47.4408 15.1901 46.8223 15.1641L44.127 15.1543L43.3457 19.6172ZM57.6426 27C57.5579 26.7331 57.5221 26.4141 57.5352 26.043C56.7409 26.8372 55.8424 27.2214 54.8398 27.1953C53.9154 27.1823 53.1471 26.8828 52.5352 26.2969C51.9297 25.7044 51.6465 24.9753 51.6855 24.1094C51.7311 22.957 52.2129 22.0749 53.1309 21.4629C54.0553 20.8444 55.2923 20.5352 56.8418 20.5352L58.1309 20.5547L58.2676 19.9199C58.3066 19.7051 58.3164 19.5 58.2969 19.3047C58.2643 18.9987 58.1471 18.7611 57.9453 18.5918C57.75 18.416 57.4896 18.3249 57.1641 18.3184C56.7344 18.3053 56.3698 18.4128 56.0703 18.6406C55.7708 18.862 55.5788 19.1842 55.4941 19.6074L52.7305 19.6172C52.776 18.6081 53.2383 17.791 54.1172 17.166C55.0026 16.5345 56.0931 16.2253 57.3887 16.2383C58.5866 16.2643 59.5241 16.6224 60.2012 17.3125C60.8783 17.9961 61.1615 18.8783 61.0508 19.959L60.2402 25.0176L60.1914 25.6426C60.1784 26.1048 60.2337 26.4954 60.3574 26.8145L60.3477 27H57.6426ZM55.5234 25.0566C56.3177 25.0827 57.0111 24.7376 57.6035 24.0215L57.9453 22.1953L56.9883 22.1855C55.9727 22.2116 55.2402 22.5208 54.791 23.1133C54.6283 23.3281 54.5273 23.5918 54.4883 23.9043C54.4362 24.2559 54.5078 24.5358 54.7031 24.7441C54.9049 24.946 55.1784 25.0501 55.5234 25.0566ZM66.3633 22.9766L69.3809 16.4336H72.4473L66.2656 28.5918C65.8229 29.5228 65.3021 30.2064 64.7031 30.6426C64.1107 31.0788 63.4238 31.2969 62.6426 31.2969C62.3366 31.2969 61.8939 31.2285 61.3145 31.0918L61.5195 28.9434L61.9004 28.9629C62.7988 28.9889 63.4564 28.6602 63.873 27.9766L64.4785 26.8535L62.75 16.4336H65.6016L66.3633 22.9766ZM75.6406 21.9902L74.7617 27H71.9004L74.3711 12.7812L79.3516 12.791C80.888 12.791 82.0957 13.2174 82.9746 14.0703C83.8535 14.9232 84.2376 16.0365 84.127 17.4102C84.0228 18.8034 83.4401 19.9167 82.3789 20.75C81.3242 21.5833 79.9766 22 78.3359 22L75.6406 21.9902ZM76.041 19.6172L78.4238 19.6367C79.1921 19.6367 79.8301 19.4382 80.3379 19.041C80.8457 18.6439 81.1484 18.1068 81.2461 17.4297C81.3438 16.7526 81.2331 16.2122 80.9141 15.8086C80.6016 15.4049 80.1361 15.1901 79.5176 15.1641L76.8223 15.1543L76.041 19.6172ZM90.3379 27C90.2533 26.7331 90.2174 26.4141 90.2305 26.043C89.4362 26.8372 88.5378 27.2214 87.5352 27.1953C86.6107 27.1823 85.8424 26.8828 85.2305 26.2969C84.625 25.7044 84.3418 24.9753 84.3809 24.1094C84.4264 22.957 84.9082 22.0749 85.8262 21.4629C86.7507 20.8444 87.9876 20.5352 89.5371 20.5352L90.8262 20.5547L90.9629 19.9199C91.002 19.7051 91.0117 19.5 90.9922 19.3047C90.9596 18.9987 90.8424 18.7611 90.6406 18.5918C90.4453 18.416 90.1849 18.3249 89.8594 18.3184C89.4297 18.3053 89.0651 18.4128 88.7656 18.6406C88.4661 18.862 88.2741 19.1842 88.1895 19.6074L85.4258 19.6172C85.4714 18.6081 85.9336 17.791 86.8125 17.166C87.6979 16.5345 88.7884 16.2253 90.084 16.2383C91.2819 16.2643 92.2194 16.6224 92.8965 17.3125C93.5736 17.9961 93.8568 18.8783 93.7461 19.959L92.9355 25.0176L92.8867 25.6426C92.8737 26.1048 92.929 26.4954 93.0527 26.8145L93.043 27H90.3379ZM88.2188 25.0566C89.013 25.0827 89.7064 24.7376 90.2988 24.0215L90.6406 22.1953L89.6836 22.1855C88.668 22.2116 87.9355 22.5208 87.4863 23.1133C87.3236 23.3281 87.2227 23.5918 87.1836 23.9043C87.1315 24.2559 87.2031 24.5358 87.3984 24.7441C87.6003 24.946 87.8737 25.0501 88.2188 25.0566ZM97.6426 27H94.8691L97.4766 12H100.24L97.6426 27Z" fill="white"/>
</svg>
