<svg width="32" height="31" viewBox="0 0 32 31" fill="none" xmlns="http://www.w3.org/2000/svg">
<g clip-path="url(#clip0_195_381)">
<path d="M16.7717 0.0258333C18.4638 0 20.143 0.0129167 21.8221 0C21.9255 1.97625 22.6359 3.99125 24.0825 5.38625C25.5292 6.82 27.57 7.47875 29.5592 7.69833V12.9037C27.6992 12.8392 25.8263 12.4517 24.1342 11.6508C23.398 11.315 22.7134 10.8888 22.0417 10.4496C22.0288 14.2212 22.0546 17.9929 22.0159 21.7517C21.9125 23.56 21.3184 25.3554 20.2721 26.8408C18.58 29.3208 15.648 30.9354 12.6384 30.9871C10.7913 31.0904 8.94419 30.5867 7.36836 29.6567C4.75919 28.1196 2.92502 25.3037 2.65377 22.2812C2.62793 21.6354 2.61502 20.9896 2.64085 20.3567C2.87335 17.9025 4.08752 15.5517 5.97336 13.95C8.11752 12.09 11.1142 11.1987 13.9171 11.7283C13.9429 13.64 13.8654 15.5517 13.8654 17.4633C12.5867 17.05 11.0884 17.1663 9.96461 17.9412C9.15086 18.4708 8.53086 19.2846 8.20794 20.2017C7.93669 20.8604 8.01419 21.5837 8.02711 22.2812C8.33711 24.3996 10.3779 26.1821 12.5479 25.9883C13.9946 25.9754 15.3767 25.1358 16.1259 23.9087C16.3713 23.4825 16.6425 23.0433 16.6555 22.5396C16.7846 20.2275 16.733 17.9283 16.7459 15.6163C16.7588 10.4108 16.733 5.21833 16.7717 0.0258333Z" fill="white"/>
</g>
<defs>
<clipPath id="clip0_195_381">
<rect width="31" height="31" fill="white" transform="translate(0.593567)"/>
</clipPath>
</defs>
</svg>
