<svg width="33" height="31" viewBox="0 0 33 31" fill="none" xmlns="http://www.w3.org/2000/svg">
<g clip-path="url(#clip0_195_372)">
<path d="M7.52465 31V10.0844H0.572699V31H7.52465ZM4.04957 7.22696C6.47384 7.22696 7.98283 5.62088 7.98283 3.61382C7.93766 1.5615 6.47393 0 4.09558 0C1.71759 0 0.162537 1.56153 0.162537 3.61382C0.162537 5.62098 1.67115 7.22696 4.00419 7.22696H4.04936H4.04957ZM11.3725 31H18.3245V19.3197C18.3245 18.6946 18.3697 18.0701 18.5532 17.6232C19.0558 16.3743 20.1997 15.0807 22.1201 15.0807C24.6357 15.0807 25.6421 16.9987 25.6421 19.8104V30.9999H32.5936V19.007C32.5936 12.5826 29.1639 9.59332 24.5899 9.59332C20.8396 9.59332 19.193 11.6896 18.2782 13.1174H18.3246V10.0839H11.3727C11.4639 12.0465 11.3727 30.9996 11.3727 30.9996L11.3725 31Z" fill="white"/>
</g>
<defs>
<clipPath id="clip0_195_372">
<rect width="32.431" height="31" fill="white" transform="translate(0.162598)"/>
</clipPath>
</defs>
</svg>
