<svg width="49" height="32" viewBox="0 0 49 32" fill="none" xmlns="http://www.w3.org/2000/svg">
<g clip-path="url(#clip0_195_367)">
<path d="M22.8085 28.0173C22.9251 28.1159 23.0498 28.2144 23.1725 28.3109C20.7263 29.9389 17.8525 30.8051 14.9141 30.8003C12.5872 30.8003 10.2926 30.2557 8.21389 29.2101C6.13514 28.1646 4.3299 26.6471 2.94258 24.779C1.55525 22.911 0.62434 20.7442 0.224295 18.4519C-0.175749 16.1597 -0.0338219 13.8056 0.638725 11.5781C1.31127 9.35052 2.49577 7.31125 4.09749 5.62339C5.6992 3.93553 7.67368 2.64591 9.86299 1.8577C12.0523 1.06948 14.3957 0.804541 16.7057 1.08406C19.0157 1.36358 21.2283 2.17981 23.1664 3.46746C23.0458 3.57001 22.9251 3.66452 22.8347 3.76908C21.0928 5.27202 19.6953 7.13267 18.7372 9.22434C17.7792 11.316 17.2831 13.5896 17.2828 15.8902C17.2833 18.1891 17.7768 20.4612 18.7301 22.5532C19.6833 24.6452 21.074 26.5085 22.8085 28.0173ZM33.3471 0.978088C30.2907 0.978088 27.4535 1.89501 25.0928 3.46746C25.2134 3.57001 25.3341 3.66452 25.4246 3.76908C27.1664 5.27202 28.564 7.13267 29.522 9.22434C30.4801 11.316 30.9761 13.5896 30.9764 15.8902C30.9751 18.189 30.4812 20.4608 29.5281 22.5527C28.5749 24.6446 27.1846 26.508 25.4507 28.0173C25.3341 28.1159 25.2094 28.2144 25.0868 28.3109C27.5327 29.9394 30.4067 30.8057 33.3451 30.8003C35.3036 30.8011 37.243 30.416 39.0525 29.667C40.8621 28.9181 42.5063 27.8199 43.8913 26.4352C45.2764 25.0506 46.375 23.4066 47.1244 21.5973C47.8739 19.7879 48.2595 17.8486 48.2592 15.8902C48.2587 11.9354 46.6874 8.14278 43.891 5.34633C41.0945 2.54989 37.3019 0.978621 33.3471 0.978088ZM24.1296 4.17526C22.3532 5.56729 20.9174 7.34575 19.931 9.37561C18.9446 11.4055 18.4337 13.6334 18.437 15.8902C18.4331 18.1474 18.9438 20.3758 19.9302 22.4061C20.9166 24.4364 22.3527 26.2151 24.1296 27.6071C25.906 26.2147 27.3419 24.4359 28.3282 22.4057C29.3146 20.3755 29.8255 18.1473 29.8222 15.8902C29.8255 13.6334 29.3146 11.4055 28.3282 9.37561C27.3419 7.34575 25.906 5.56729 24.1296 4.17526Z" fill="white"/>
</g>
<defs>
<clipPath id="clip0_195_367">
<rect width="48.2593" height="31.7805" fill="white"/>
</clipPath>
</defs>
</svg>
