<svg width="70" height="70" viewBox="0 0 70 70" fill="none" xmlns="http://www.w3.org/2000/svg">
<path d="M26.5767 24.0978L17.4125 45.9611H11.4333L6.92417 28.5107C6.65 27.4374 6.41375 27.0436 5.57958 26.5916C4.22042 25.8536 1.97458 25.1624 0 24.7307L0.134167 24.0978H9.75917C10.3881 24.0972 10.9966 24.3214 11.4748 24.73C11.9529 25.1387 12.2693 25.7048 12.3667 26.3261L14.7496 38.9786L20.6354 24.0978H26.5767ZM50.0063 38.8241C50.0296 33.052 42.0263 32.7341 42.0817 30.1557C42.0992 29.3711 42.8458 28.537 44.4792 28.3241C46.3933 28.1423 48.3211 28.4809 50.0588 29.3041L51.0504 24.6666C49.3587 24.0306 47.5669 23.7017 45.7596 23.6953C40.1683 23.6953 36.2338 26.6703 36.1988 30.9257C36.1638 34.0728 39.0075 35.8257 41.1513 36.8757C43.3563 37.9461 44.0971 38.6345 44.0854 39.5911C44.0708 41.0611 42.3296 41.7057 40.7021 41.732C37.8583 41.7757 36.2104 40.9649 34.8921 40.3524L33.8683 45.1416C35.1896 45.7482 37.6279 46.2791 40.1567 46.3024C46.0979 46.3024 49.9858 43.3682 50.0063 38.8241ZM64.7675 45.9611H70L65.4354 24.0978H60.6054C60.0893 24.093 59.5837 24.2434 59.1542 24.5294C58.7246 24.8155 58.3909 25.224 58.1962 25.702L49.7117 45.9611H55.65L56.8313 42.6945H64.0879L64.7675 45.9611ZM58.4587 38.2145L61.4338 30.0041L63.1488 38.2145H58.4587ZM34.6588 24.0978L29.9833 45.9611H24.325L29.0063 24.0978H34.6588Z" fill="white"/>
</svg>
